<svg xmlns="http://www.w3.org/2000/svg" width="1200" height="630" viewBox="0 0 1200 630" font-family="'Malgun Gothic','Apple SD Gothic Neo','Noto Sans KR','Segoe UI',Helvetica,Arial,sans-serif">
  <defs>
    <linearGradient id="bg" x1="0" y1="0" x2="1" y2="1">
      <stop offset="0" stop-color="#0b1220"/>
      <stop offset="1" stop-color="#142536"/>
    </linearGradient>
    <linearGradient id="card" x1="0" y1="0" x2="0" y2="1">
      <stop offset="0" stop-color="#1c2c44"/>
      <stop offset="1" stop-color="#162232"/>
    </linearGradient>
    <marker id="arrow" markerWidth="10" markerHeight="10" refX="7" refY="3" orient="auto">
      <path d="M0,0 L7,3 L0,6 Z" fill="#5b86b4"/>
    </marker>
    <marker id="arrowG" markerWidth="10" markerHeight="10" refX="7" refY="3" orient="auto">
      <path d="M0,0 L7,3 L0,6 Z" fill="#3a8f5f"/>
    </marker>
  </defs>

  <rect width="1200" height="630" fill="url(#bg)"/>

  <!-- header (HELIX-loop style) -->
  <text x="60" y="80" fill="#eaf0fb" font-size="40" font-weight="700">SISAI</text>
  <text x="60" y="118" fill="#9db4d8" font-size="22">three strands + single backbone — verified defenses compound without convergence</text>
  <text x="60" y="150" fill="#6f86ad" font-size="15">ThreatIntel &#183; DefenseSynth &#183; DetectOps &#183; self-contained &#183; deterministic &#183; defensive-only</text>

  <!-- strand A -->
  <rect x="60" y="200" width="330" height="120" rx="14" fill="url(#card)" stroke="#2c416b" stroke-width="1"/>
  <text x="225" y="236" text-anchor="middle" fill="#7fa8e6" font-size="19" font-weight="700">가닥 A &#183; ThreatIntel</text>
  <text x="225" y="268" text-anchor="middle" fill="#9db4d8" font-size="15">채널 스캔 &#8594; 위협 수집 &#183; 분류</text>
  <text x="225" y="296" text-anchor="middle" fill="#6f86ad" font-size="13">triage &#183; coverage &#183; blind-spot watch</text>

  <!-- strand B -->
  <rect x="435" y="200" width="330" height="120" rx="14" fill="url(#card)" stroke="#2c416b" stroke-width="1"/>
  <text x="600" y="236" text-anchor="middle" fill="#7fe0a8" font-size="19" font-weight="700">가닥 B &#183; DefenseSynth</text>
  <text x="600" y="268" text-anchor="middle" fill="#9db4d8" font-size="15">외부 방어 검색 &#8594; 없으면 자체 설계</text>
  <text x="600" y="296" text-anchor="middle" fill="#6f86ad" font-size="13">external-first &#8594; pgf full-cycle</text>

  <!-- strand C -->
  <rect x="810" y="200" width="330" height="120" rx="14" fill="url(#card)" stroke="#2c416b" stroke-width="1"/>
  <text x="975" y="236" text-anchor="middle" fill="#f0d68a" font-size="19" font-weight="700">가닥 C &#183; DetectOps</text>
  <text x="975" y="268" text-anchor="middle" fill="#9db4d8" font-size="15">탐지 규칙 &#183; 예방 통제 &#183; 보고서 운영</text>
  <text x="975" y="296" text-anchor="middle" fill="#6f86ad" font-size="13">verify &#8594; record &#8594; reuse</text>

  <!-- strands into the deterministic backbone -->
  <path d="M225,320 C280,365 382,382 466,400" fill="none" stroke="#5b86b4" stroke-width="2.5" marker-end="url(#arrow)"/>
  <path d="M600,320 L600,393" fill="none" stroke="#5b86b4" stroke-width="2.5" marker-end="url(#arrow)"/>
  <path d="M975,320 C920,365 818,382 734,400" fill="none" stroke="#5b86b4" stroke-width="2.5" marker-end="url(#arrow)"/>

  <!-- deterministic backbone -->
  <rect x="310" y="396" width="580" height="94" rx="14" fill="#2a2615" stroke="#b79438" stroke-width="2"/>
  <text x="600" y="433" text-anchor="middle" fill="#f0d68a" font-size="20" font-weight="700">백본 &#183; SISAI Core (단일 출처 &#183; 결정론)</text>
  <text x="600" y="463" text-anchor="middle" fill="#cdb87f" font-size="15">channels &#183; ledger &#183; diversity &#183; triage &#183; provenance &#183; loop</text>

  <!-- verified feedback loop -->
  <path d="M892,442 C1048,456 1150,430 1150,350 C1150,320 1124,306 1088,304"
        fill="none" stroke="#3a8f5f" stroke-width="2.5" stroke-dasharray="7 5" marker-end="url(#arrowG)"/>
  <text x="1010" y="486" text-anchor="middle" fill="#7fe0a8" font-size="14" font-weight="700">검증된 방어 &#8594; corpus 환류 (염기쌍)</text>

  <!-- channel expansion loop -->
  <path d="M308,442 C152,456 50,430 50,350 C50,320 76,306 112,304"
        fill="none" stroke="#5b86b4" stroke-width="2.5" stroke-dasharray="7 5" marker-end="url(#arrow)"/>
  <text x="190" y="486" text-anchor="middle" fill="#7fa8e6" font-size="14" font-weight="700">채널 발견 &#8594; ledger &#8594; 재사용</text>

  <!-- invariant bar -->
  <polygon points="218,532 232,532 225,520" fill="#b79438"/>
  <polygon points="593,532 607,532 600,520" fill="#b79438"/>
  <polygon points="968,532 982,532 975,520" fill="#b79438"/>
  <rect x="60" y="534" width="1080" height="62" rx="14" fill="#1d3457" stroke="#3f72c4" stroke-width="2"/>
  <text x="600" y="560" text-anchor="middle" fill="#eaf0fb" font-size="17" font-weight="700">결정론 경계 = 1차 prompt-injection 방어</text>
  <text x="600" y="584" text-anchor="middle" fill="#9db4d8" font-size="14">수집된 외부 텍스트는 data일 뿐 control flow를 변경하지 못한다 &#183; 검증 전 feedback 금지</text>

  <text x="60" y="620" fill="#64789c" font-size="14">위협 감지 &#8594; 방어 합성 &#8594; 운영 검증 &#8594; corpus 환류 &#8594; 다음 turn의 더 강한 방어</text>
</svg>
